<svg width="114" height="32" viewBox="0 0 114 32" fill="none" xmlns="http://www.w3.org/2000/svg">
<path d="M52.0128 17.2969V25.5H49.9176V7.31818H52.0128V13.9943H52.1903C52.5099 13.29 52.9893 12.7307 53.6286 12.3164C54.2737 11.8962 55.1319 11.6861 56.2031 11.6861C57.1323 11.6861 57.9461 11.8725 58.6445 12.2454C59.3429 12.6123 59.8845 13.1776 60.2692 13.9411C60.6598 14.6986 60.8551 15.6634 60.8551 16.8352V25.5H58.7599V16.9773C58.7599 15.8942 58.4788 15.0567 57.9165 14.4648C57.3602 13.8671 56.5878 13.5682 55.5994 13.5682C54.9129 13.5682 54.2973 13.7132 53.7528 14.0032C53.2143 14.2932 52.7881 14.7164 52.4744 15.2727C52.1667 15.8291 52.0128 16.5038 52.0128 17.2969ZM70.2279 25.7841C68.9968 25.7841 67.9167 25.4911 66.9875 24.9052C66.0642 24.3192 65.3421 23.4995 64.8213 22.446C64.3064 21.3925 64.0489 20.1615 64.0489 18.7528C64.0489 17.3324 64.3064 16.0924 64.8213 15.033C65.3421 13.9736 66.0642 13.1509 66.9875 12.565C67.9167 11.979 68.9968 11.6861 70.2279 11.6861C71.459 11.6861 72.5361 11.979 73.4594 12.565C74.3886 13.1509 75.1107 13.9736 75.6256 15.033C76.1465 16.0924 76.4069 17.3324 76.4069 18.7528C76.4069 20.1615 76.1465 21.3925 75.6256 22.446C75.1107 23.4995 74.3886 24.3192 73.4594 24.9052C72.5361 25.4911 71.459 25.7841 70.2279 25.7841ZM70.2279 23.902C71.163 23.902 71.9324 23.6623 72.5361 23.1829C73.1398 22.7035 73.5867 22.0732 73.8767 21.2919C74.1667 20.5107 74.3117 19.6643 74.3117 18.7528C74.3117 17.8414 74.1667 16.9921 73.8767 16.2049C73.5867 15.4177 73.1398 14.7815 72.5361 14.2962C71.9324 13.8108 71.163 13.5682 70.2279 13.5682C69.2928 13.5682 68.5233 13.8108 67.9197 14.2962C67.316 14.7815 66.8691 15.4177 66.5791 16.2049C66.2891 16.9921 66.1441 17.8414 66.1441 18.7528C66.1441 19.6643 66.2891 20.5107 66.5791 21.2919C66.8691 22.0732 67.316 22.7035 67.9197 23.1829C68.5233 23.6623 69.2928 23.902 70.2279 23.902ZM79.6051 25.5V11.8636H81.6293V13.9943H81.8068C82.0909 13.2663 82.5496 12.7011 83.1829 12.2987C83.8162 11.8903 84.5767 11.6861 85.4645 11.6861C86.3641 11.6861 87.1128 11.8903 87.7106 12.2987C88.3143 12.7011 88.7848 13.2663 89.1222 13.9943H89.2642C89.6134 13.29 90.1372 12.7307 90.8356 12.3164C91.534 11.8962 92.3714 11.6861 93.348 11.6861C94.5672 11.6861 95.5645 12.0678 96.3398 12.8313C97.1152 13.5889 97.5028 14.7696 97.5028 16.3736V25.5H95.4077V16.3736C95.4077 15.3674 95.1325 14.6483 94.582 14.2163C94.0316 13.7842 93.3835 13.5682 92.6378 13.5682C91.679 13.5682 90.9362 13.8582 90.4094 14.4382C89.8827 15.0123 89.6193 15.7403 89.6193 16.6222V25.5H87.4886V16.1605C87.4886 15.3852 87.2371 14.7608 86.734 14.2873C86.2309 13.8079 85.5829 13.5682 84.7898 13.5682C84.2453 13.5682 83.7363 13.7132 83.2628 14.0032C82.7952 14.2932 82.4164 14.6957 82.1264 15.2106C81.8423 15.7196 81.7003 16.3085 81.7003 16.9773V25.5H79.6051ZM107.051 25.7841C105.737 25.7841 104.604 25.4941 103.651 24.9141C102.704 24.3281 101.973 23.5114 101.458 22.4638C100.949 21.4103 100.694 20.1851 100.694 18.7884C100.694 17.3916 100.949 16.1605 101.458 15.0952C101.973 14.0239 102.689 13.1894 103.606 12.5916C104.53 11.9879 105.607 11.6861 106.838 11.6861C107.548 11.6861 108.249 11.8045 108.942 12.0412C109.634 12.2779 110.265 12.6626 110.833 13.1953C111.401 13.7221 111.854 14.4205 112.191 15.2905C112.529 16.1605 112.697 17.2318 112.697 18.5043V19.392H102.186V17.581H110.567C110.567 16.8116 110.413 16.125 110.105 15.5213C109.803 14.9176 109.371 14.4412 108.809 14.092C108.252 13.7428 107.595 13.5682 106.838 13.5682C106.003 13.5682 105.281 13.7753 104.672 14.1896C104.068 14.598 103.603 15.1307 103.278 15.7876C102.952 16.4446 102.79 17.1489 102.79 17.9006V19.108C102.79 20.1378 102.967 21.0108 103.322 21.7269C103.683 22.4371 104.183 22.9787 104.823 23.3516C105.462 23.7185 106.205 23.902 107.051 23.902C107.601 23.902 108.099 23.825 108.542 23.6712C108.992 23.5114 109.38 23.2746 109.705 22.9609C110.031 22.6413 110.282 22.2448 110.46 21.7713L112.484 22.3395C112.271 23.026 111.913 23.6297 111.41 24.1506C110.907 24.6655 110.285 25.0679 109.546 25.358C108.806 25.642 107.974 25.7841 107.051 25.7841Z" fill="#4E130F"/>
<path d="M12 29.3333V16H20V29.3333M4 12L16 2.66667L28 12V26.6667C28 27.3739 27.719 28.0522 27.219 28.5523C26.7189 29.0524 26.0406 29.3333 25.3333 29.3333H6.66667C5.95942 29.3333 5.28115 29.0524 4.78105 28.5523C4.28095 28.0522 4 27.3739 4 26.6667V12Z" stroke="#4E130F" stroke-width="3" stroke-linecap="round" stroke-linejoin="round"/>
</svg>
