<svg width="125" height="37" viewBox="0 0 125 37" fill="none" xmlns="http://www.w3.org/2000/svg">
<path d="M18.5 18.5C16.8042 18.5 15.3525 17.8962 14.1448 16.6885C12.9372 15.4809 12.3334 14.0292 12.3334 12.3333C12.3334 10.6375 12.9372 9.18577 14.1448 7.97813C15.3525 6.77049 16.8042 6.16667 18.5 6.16667C20.1959 6.16667 21.6476 6.77049 22.8552 7.97813C24.0629 9.18577 24.6667 10.6375 24.6667 12.3333C24.6667 14.0292 24.0629 15.4809 22.8552 16.6885C21.6476 17.8962 20.1959 18.5 18.5 18.5ZM6.16669 30.8333V26.5167C6.16669 25.6431 6.39151 24.8401 6.84117 24.1078C7.29082 23.3755 7.88821 22.8167 8.63335 22.4313C10.2264 21.6347 11.8452 21.0373 13.4896 20.6391C15.134 20.2408 16.8042 20.0417 18.5 20.0417C20.1959 20.0417 21.866 20.2408 23.5104 20.6391C25.1549 21.0373 26.7736 21.6347 28.3667 22.4313C29.1118 22.8167 29.7092 23.3755 30.1589 24.1078C30.6085 24.8401 30.8334 25.6431 30.8334 26.5167V30.8333H6.16669ZM9.25002 27.75H27.75V26.5167C27.75 26.234 27.6794 25.9771 27.538 25.7458C27.3967 25.5146 27.2104 25.3347 26.9792 25.2063C25.5917 24.5125 24.1913 23.9922 22.7781 23.6453C21.365 23.2984 19.9389 23.125 18.5 23.125C17.0611 23.125 15.6351 23.2984 14.2219 23.6453C12.8087 23.9922 11.4084 24.5125 10.0209 25.2063C9.7896 25.3347 9.60332 25.5146 9.462 25.7458C9.32068 25.9771 9.25002 26.234 9.25002 26.5167V27.75ZM18.5 15.4167C19.3479 15.4167 20.0738 15.1148 20.6776 14.5109C21.2814 13.9071 21.5834 13.1813 21.5834 12.3333C21.5834 11.4854 21.2814 10.7596 20.6776 10.1557C20.0738 9.55191 19.3479 9.25 18.5 9.25C17.6521 9.25 16.9262 9.55191 16.3224 10.1557C15.7186 10.7596 15.4167 11.4854 15.4167 12.3333C15.4167 13.1813 15.7186 13.9071 16.3224 14.5109C16.9262 15.1148 17.6521 15.4167 18.5 15.4167Z" fill="#4E130F"/>
<path d="M51.9176 33.1136V14.3636H53.9418V16.5298H54.1903C54.3442 16.2931 54.5573 15.9912 54.8295 15.6243C55.1077 15.2514 55.5043 14.92 56.0192 14.63C56.54 14.334 57.2443 14.1861 58.1321 14.1861C59.2803 14.1861 60.2924 14.4731 61.1683 15.0472C62.0443 15.6213 62.7279 16.4351 63.2191 17.4886C63.7103 18.5421 63.956 19.785 63.956 21.2173C63.956 22.6615 63.7103 23.9132 63.2191 24.9727C62.7279 26.0262 62.0472 26.8429 61.1772 27.4229C60.3072 27.997 59.304 28.2841 58.1676 28.2841C57.2917 28.2841 56.5903 28.1391 56.0636 27.8491C55.5368 27.5531 55.1314 27.2187 54.8473 26.8459C54.5632 26.4671 54.3442 26.1534 54.1903 25.9048H54.0128V33.1136H51.9176ZM53.9773 21.1818C53.9773 22.2116 54.1282 23.1201 54.43 23.9073C54.7319 24.6886 55.1728 25.3011 55.7528 25.745C56.3329 26.183 57.0431 26.402 57.8835 26.402C58.7595 26.402 59.4904 26.1712 60.0763 25.7095C60.6682 25.242 61.1121 24.6146 61.408 23.8274C61.7099 23.0343 61.8608 22.1525 61.8608 21.1818C61.8608 20.223 61.7128 19.3589 61.4169 18.5895C61.1269 17.8142 60.686 17.2016 60.0941 16.7518C59.5082 16.296 58.7713 16.0682 57.8835 16.0682C57.0313 16.0682 56.3151 16.2842 55.7351 16.7163C55.1551 17.1424 54.7171 17.7402 54.4212 18.5096C54.1252 19.2731 53.9773 20.1638 53.9773 21.1818ZM67.152 28V14.3636H69.1761V16.4233H69.3182C69.5668 15.7486 70.0166 15.2011 70.6676 14.7809C71.3187 14.3607 72.0526 14.1506 72.8693 14.1506C73.0232 14.1506 73.2156 14.1535 73.4464 14.1594C73.6772 14.1654 73.8518 14.1742 73.9702 14.1861V16.3168C73.8991 16.299 73.7364 16.2724 73.4819 16.2369C73.2333 16.1954 72.9699 16.1747 72.6918 16.1747C72.0289 16.1747 71.437 16.3138 70.9162 16.592C70.4013 16.8642 69.9929 17.243 69.6911 17.7283C69.3951 18.2077 69.2472 18.7552 69.2472 19.3707V28H67.152ZM81.5785 28.2841C80.3474 28.2841 79.2673 27.9911 78.3381 27.4052C77.4148 26.8192 76.6927 25.9995 76.1719 24.946C75.657 23.8925 75.3995 22.6615 75.3995 21.2528C75.3995 19.8324 75.657 18.5924 76.1719 17.533C76.6927 16.4736 77.4148 15.6509 78.3381 15.065C79.2673 14.479 80.3474 14.1861 81.5785 14.1861C82.8095 14.1861 83.8867 14.479 84.81 15.065C85.7392 15.6509 86.4613 16.4736 86.9762 17.533C87.497 18.5924 87.7575 19.8324 87.7575 21.2528C87.7575 22.6615 87.497 23.8925 86.9762 24.946C86.4613 25.9995 85.7392 26.8192 84.81 27.4052C83.8867 27.9911 82.8095 28.2841 81.5785 28.2841ZM81.5785 26.402C82.5136 26.402 83.283 26.1623 83.8867 25.6829C84.4904 25.2035 84.9373 24.5732 85.2273 23.7919C85.5173 23.0107 85.6623 22.1643 85.6623 21.2528C85.6623 20.3414 85.5173 19.4921 85.2273 18.7049C84.9373 17.9177 84.4904 17.2815 83.8867 16.7962C83.283 16.3108 82.5136 16.0682 81.5785 16.0682C80.6433 16.0682 79.8739 16.3108 79.2702 16.7962C78.6665 17.2815 78.2197 17.9177 77.9297 18.7049C77.6397 19.4921 77.4947 20.3414 77.4947 21.2528C77.4947 22.1643 77.6397 23.0107 77.9297 23.7919C78.2197 24.5732 78.6665 25.2035 79.2702 25.6829C79.8739 26.1623 80.6433 26.402 81.5785 26.402ZM97.0281 14.3636V16.1392H89.6773V14.3636H97.0281ZM91.879 28V12.4815C91.879 11.7003 92.0625 11.0492 92.4294 10.5284C92.7964 10.0076 93.2728 9.61695 93.8588 9.35653C94.4447 9.09612 95.0632 8.96591 95.7142 8.96591C96.2291 8.96591 96.6494 9.00734 96.9749 9.0902C97.3004 9.17306 97.5431 9.25 97.7029 9.32102L97.0992 11.1321C96.9926 11.0966 96.8447 11.0522 96.6553 10.9989C96.4718 10.9457 96.2291 10.919 95.9273 10.919C95.2348 10.919 94.7347 11.0936 94.4269 11.4428C94.1251 11.792 93.9742 12.304 93.9742 12.9787V28H91.879ZM99.9645 28V14.3636H102.06V28H99.9645ZM101.03 12.0909C100.621 12.0909 100.269 11.9518 99.9734 11.6737C99.6834 11.3955 99.5384 11.0611 99.5384 10.6705C99.5384 10.2798 99.6834 9.94543 99.9734 9.66726C100.269 9.38909 100.621 9.25 101.03 9.25C101.438 9.25 101.787 9.38909 102.077 9.66726C102.373 9.94543 102.521 10.2798 102.521 10.6705C102.521 11.0611 102.373 11.3955 102.077 11.6737C101.787 11.9518 101.438 12.0909 101.03 12.0909ZM107.992 9.81818V28H105.897V9.81818H107.992ZM117.547 28.2841C116.233 28.2841 115.1 27.9941 114.147 27.4141C113.2 26.8281 112.469 26.0114 111.954 24.9638C111.445 23.9103 111.191 22.6851 111.191 21.2884C111.191 19.8916 111.445 18.6605 111.954 17.5952C112.469 16.5239 113.185 15.6894 114.102 15.0916C115.026 14.4879 116.103 14.1861 117.334 14.1861C118.044 14.1861 118.746 14.3045 119.438 14.5412C120.131 14.7779 120.761 15.1626 121.329 15.6953C121.897 16.2221 122.35 16.9205 122.687 17.7905C123.025 18.6605 123.193 19.7318 123.193 21.0043V21.892H112.682V20.081H121.063C121.063 19.3116 120.909 18.625 120.601 18.0213C120.299 17.4176 119.867 16.9412 119.305 16.592C118.749 16.2428 118.092 16.0682 117.334 16.0682C116.499 16.0682 115.777 16.2753 115.168 16.6896C114.564 17.098 114.099 17.6307 113.774 18.2876C113.448 18.9446 113.286 19.6489 113.286 20.4006V21.608C113.286 22.6378 113.463 23.5108 113.818 24.2269C114.179 24.9371 114.68 25.4787 115.319 25.8516C115.958 26.2185 116.701 26.402 117.547 26.402C118.097 26.402 118.595 26.325 119.039 26.1712C119.488 26.0114 119.876 25.7746 120.202 25.4609C120.527 25.1413 120.779 24.7448 120.956 24.2713L122.98 24.8395C122.767 25.526 122.409 26.1297 121.906 26.6506C121.403 27.1655 120.782 27.5679 120.042 27.858C119.302 28.142 118.47 28.2841 117.547 28.2841Z" fill="#4E130F"/>
</svg>
