<svg width="156" height="40" viewBox="0 0 156 40" fill="none" xmlns="http://www.w3.org/2000/svg">
<path d="M30 33.3333V16.6667M20 33.3333V6.66667M10 33.3333V23.3333" stroke="#4E130F" stroke-width="3.5" stroke-linecap="round" stroke-linejoin="round"/>
<path d="M53.9176 35.1136V16.3636H55.9418V18.5298H56.1903C56.3442 18.2931 56.5573 17.9912 56.8295 17.6243C57.1077 17.2514 57.5043 16.92 58.0192 16.63C58.54 16.334 59.2443 16.1861 60.1321 16.1861C61.2803 16.1861 62.2924 16.4731 63.1683 17.0472C64.0443 17.6213 64.7279 18.4351 65.2191 19.4886C65.7103 20.5421 65.956 21.785 65.956 23.2173C65.956 24.6615 65.7103 25.9132 65.2191 26.9727C64.7279 28.0262 64.0472 28.8429 63.1772 29.4229C62.3072 29.997 61.304 30.2841 60.1676 30.2841C59.2917 30.2841 58.5903 30.1391 58.0636 29.8491C57.5368 29.5531 57.1314 29.2187 56.8473 28.8459C56.5632 28.4671 56.3442 28.1534 56.1903 27.9048H56.0128V35.1136H53.9176ZM55.9773 23.1818C55.9773 24.2116 56.1282 25.1201 56.43 25.9073C56.7319 26.6886 57.1728 27.3011 57.7528 27.745C58.3329 28.183 59.0431 28.402 59.8835 28.402C60.7595 28.402 61.4904 28.1712 62.0763 27.7095C62.6682 27.242 63.1121 26.6146 63.408 25.8274C63.7099 25.0343 63.8608 24.1525 63.8608 23.1818C63.8608 22.223 63.7128 21.3589 63.4169 20.5895C63.1269 19.8142 62.686 19.2016 62.0941 18.7518C61.5082 18.296 60.7713 18.0682 59.8835 18.0682C59.0313 18.0682 58.3151 18.2842 57.7351 18.7163C57.1551 19.1424 56.7171 19.7402 56.4212 20.5096C56.1252 21.2731 55.9773 22.1638 55.9773 23.1818ZM69.152 30V16.3636H71.1761V18.4233H71.3182C71.5668 17.7486 72.0166 17.2011 72.6676 16.7809C73.3187 16.3607 74.0526 16.1506 74.8693 16.1506C75.0232 16.1506 75.2156 16.1535 75.4464 16.1594C75.6772 16.1654 75.8518 16.1742 75.9702 16.1861V18.3168C75.8991 18.299 75.7364 18.2724 75.4819 18.2369C75.2333 18.1954 74.9699 18.1747 74.6918 18.1747C74.0289 18.1747 73.437 18.3138 72.9162 18.592C72.4013 18.8642 71.9929 19.243 71.6911 19.7283C71.3951 20.2077 71.2472 20.7552 71.2472 21.3707V30H69.152ZM83.5785 30.2841C82.3474 30.2841 81.2673 29.9911 80.3381 29.4052C79.4148 28.8192 78.6927 27.9995 78.1719 26.946C77.657 25.8925 77.3995 24.6615 77.3995 23.2528C77.3995 21.8324 77.657 20.5924 78.1719 19.533C78.6927 18.4736 79.4148 17.6509 80.3381 17.065C81.2673 16.479 82.3474 16.1861 83.5785 16.1861C84.8095 16.1861 85.8867 16.479 86.81 17.065C87.7392 17.6509 88.4613 18.4736 88.9762 19.533C89.497 20.5924 89.7575 21.8324 89.7575 23.2528C89.7575 24.6615 89.497 25.8925 88.9762 26.946C88.4613 27.9995 87.7392 28.8192 86.81 29.4052C85.8867 29.9911 84.8095 30.2841 83.5785 30.2841ZM83.5785 28.402C84.5136 28.402 85.283 28.1623 85.8867 27.6829C86.4904 27.2035 86.9373 26.5732 87.2273 25.7919C87.5173 25.0107 87.6623 24.1643 87.6623 23.2528C87.6623 22.3414 87.5173 21.4921 87.2273 20.7049C86.9373 19.9177 86.4904 19.2815 85.8867 18.7962C85.283 18.3108 84.5136 18.0682 83.5785 18.0682C82.6433 18.0682 81.8739 18.3108 81.2702 18.7962C80.6665 19.2815 80.2197 19.9177 79.9297 20.7049C79.6397 21.4921 79.4947 22.3414 79.4947 23.2528C79.4947 24.1643 79.6397 25.0107 79.9297 25.7919C80.2197 26.5732 80.6665 27.2035 81.2702 27.6829C81.8739 28.1623 82.6433 28.402 83.5785 28.402ZM98.46 35.3977C97.4479 35.3977 96.5779 35.2675 95.8499 35.0071C95.1219 34.7526 94.5152 34.4152 94.0299 33.995C93.5505 33.5807 93.1688 33.1368 92.8847 32.6634L94.5537 31.4915C94.7431 31.7401 94.9828 32.0241 95.2728 32.3438C95.5628 32.6693 95.9594 32.9504 96.4624 33.1871C96.9714 33.4298 97.6373 33.5511 98.46 33.5511C99.5608 33.5511 100.469 33.2848 101.185 32.7521C101.902 32.2195 102.26 31.3849 102.26 30.2486V27.4787H102.082C101.928 27.7273 101.709 28.035 101.425 28.402C101.147 28.763 100.745 29.0856 100.218 29.3697C99.6969 29.6478 98.9926 29.7869 98.1048 29.7869C97.004 29.7869 96.0156 29.5265 95.1396 29.0057C94.2696 28.4848 93.5801 27.7273 93.0711 26.733C92.568 25.7386 92.3165 24.5312 92.3165 23.1108C92.3165 21.714 92.5621 20.4978 93.0534 19.462C93.5446 18.4203 94.2282 17.6154 95.1041 17.0472C95.9801 16.4731 96.9922 16.1861 98.1404 16.1861C99.0281 16.1861 99.7325 16.334 100.253 16.63C100.78 16.92 101.182 17.2514 101.461 17.6243C101.745 17.9912 101.964 18.2931 102.118 18.5298H102.331V16.3636H104.355V30.3906C104.355 31.5625 104.089 32.5154 103.556 33.2493C103.029 33.9891 102.319 34.5307 101.425 34.8739C100.537 35.2231 99.549 35.3977 98.46 35.3977ZM98.3889 27.9048C99.2294 27.9048 99.9396 27.7125 100.52 27.3278C101.1 26.9431 101.541 26.3897 101.842 25.6676C102.144 24.9455 102.295 24.0814 102.295 23.0753C102.295 22.0928 102.147 21.2257 101.851 20.4741C101.555 19.7224 101.117 19.1335 100.537 18.7074C99.9574 18.2812 99.2412 18.0682 98.3889 18.0682C97.5012 18.0682 96.7613 18.2931 96.1695 18.7429C95.5835 19.1927 95.1426 19.7964 94.8467 20.554C94.5567 21.3116 94.4117 22.152 94.4117 23.0753C94.4117 24.0223 94.5596 24.8597 94.8556 25.5877C95.1574 26.3098 95.6013 26.878 96.1872 27.2923C96.7791 27.7006 97.513 27.9048 98.3889 27.9048ZM108.19 30V16.3636H110.214V18.4233H110.356C110.605 17.7486 111.055 17.2011 111.706 16.7809C112.357 16.3607 113.091 16.1506 113.907 16.1506C114.061 16.1506 114.254 16.1535 114.484 16.1594C114.715 16.1654 114.89 16.1742 115.008 16.1861V18.3168C114.937 18.299 114.774 18.2724 114.52 18.2369C114.271 18.1954 114.008 18.1747 113.73 18.1747C113.067 18.1747 112.475 18.3138 111.954 18.592C111.439 18.8642 111.031 19.243 110.729 19.7283C110.433 20.2077 110.285 20.7552 110.285 21.3707V30H108.19ZM122.794 30.2841C121.48 30.2841 120.347 29.9941 119.394 29.4141C118.447 28.8281 117.716 28.0114 117.201 26.9638C116.692 25.9103 116.438 24.6851 116.438 23.2884C116.438 21.8916 116.692 20.6605 117.201 19.5952C117.716 18.5239 118.432 17.6894 119.35 17.0916C120.273 16.4879 121.35 16.1861 122.581 16.1861C123.291 16.1861 123.993 16.3045 124.685 16.5412C125.378 16.7779 126.008 17.1626 126.576 17.6953C127.144 18.2221 127.597 18.9205 127.934 19.7905C128.272 20.6605 128.44 21.7318 128.44 23.0043V23.892H117.929V22.081H126.31C126.31 21.3116 126.156 20.625 125.848 20.0213C125.546 19.4176 125.114 18.9412 124.552 18.592C123.996 18.2428 123.339 18.0682 122.581 18.0682C121.747 18.0682 121.024 18.2753 120.415 18.6896C119.811 19.098 119.347 19.6307 119.021 20.2876C118.696 20.9446 118.533 21.6489 118.533 22.4006V23.608C118.533 24.6378 118.71 25.5108 119.065 26.2269C119.426 26.9371 119.927 27.4787 120.566 27.8516C121.205 28.2185 121.948 28.402 122.794 28.402C123.345 28.402 123.842 28.325 124.286 28.1712C124.735 28.0114 125.123 27.7746 125.449 27.4609C125.774 27.1413 126.026 26.7448 126.203 26.2713L128.227 26.8395C128.014 27.526 127.656 28.1297 127.153 28.6506C126.65 29.1655 126.029 29.5679 125.289 29.858C124.549 30.142 123.717 30.2841 122.794 30.2841ZM141.287 19.4176L139.405 19.9503C139.286 19.6366 139.112 19.3318 138.881 19.0359C138.656 18.734 138.348 18.4854 137.957 18.2901C137.567 18.0948 137.067 17.9972 136.457 17.9972C135.623 17.9972 134.927 18.1895 134.371 18.5742C133.82 18.953 133.545 19.4354 133.545 20.0213C133.545 20.5421 133.735 20.9535 134.113 21.2553C134.492 21.5572 135.084 21.8087 135.889 22.0099L137.913 22.5071C139.132 22.803 140.041 23.2558 140.639 23.8654C141.236 24.4691 141.535 25.2474 141.535 26.2003C141.535 26.9815 141.31 27.6799 140.861 28.2955C140.417 28.911 139.795 29.3963 138.996 29.7514C138.197 30.1065 137.268 30.2841 136.209 30.2841C134.818 30.2841 133.667 29.9822 132.755 29.3786C131.844 28.7749 131.267 27.893 131.024 26.733L133.013 26.2358C133.202 26.9697 133.56 27.5201 134.087 27.8871C134.619 28.254 135.315 28.4375 136.173 28.4375C137.15 28.4375 137.925 28.2304 138.499 27.8161C139.079 27.3958 139.369 26.8928 139.369 26.3068C139.369 25.8333 139.203 25.4368 138.872 25.1172C138.54 24.7917 138.031 24.549 137.345 24.3892L135.072 23.8565C133.823 23.5606 132.906 23.1019 132.32 22.4805C131.74 21.8531 131.45 21.0689 131.45 20.1278C131.45 19.3584 131.666 18.6778 132.098 18.0859C132.536 17.4941 133.131 17.0295 133.883 16.6921C134.64 16.3548 135.498 16.1861 136.457 16.1861C137.807 16.1861 138.866 16.482 139.635 17.0739C140.411 17.6657 140.961 18.447 141.287 19.4176ZM154.348 19.4176L152.466 19.9503C152.348 19.6366 152.173 19.3318 151.942 19.0359C151.717 18.734 151.41 18.4854 151.019 18.2901C150.628 18.0948 150.128 17.9972 149.519 17.9972C148.684 17.9972 147.989 18.1895 147.432 18.5742C146.882 18.953 146.607 19.4354 146.607 20.0213C146.607 20.5421 146.796 20.9535 147.175 21.2553C147.554 21.5572 148.146 21.8087 148.95 22.0099L150.975 22.5071C152.194 22.803 153.102 23.2558 153.7 23.8654C154.298 24.4691 154.597 25.2474 154.597 26.2003C154.597 26.9815 154.372 27.6799 153.922 28.2955C153.478 28.911 152.857 29.3963 152.058 29.7514C151.259 30.1065 150.329 30.2841 149.27 30.2841C147.879 30.2841 146.728 29.9822 145.817 29.3786C144.905 28.7749 144.328 27.893 144.085 26.733L146.074 26.2358C146.263 26.9697 146.622 27.5201 147.148 27.8871C147.681 28.254 148.376 28.4375 149.235 28.4375C150.211 28.4375 150.986 28.2304 151.561 27.8161C152.141 27.3958 152.431 26.8928 152.431 26.3068C152.431 25.8333 152.265 25.4368 151.933 25.1172C151.602 24.7917 151.093 24.549 150.406 24.3892L148.134 23.8565C146.885 23.5606 145.968 23.1019 145.382 22.4805C144.802 21.8531 144.512 21.0689 144.512 20.1278C144.512 19.3584 144.728 18.6778 145.16 18.0859C145.598 17.4941 146.192 17.0295 146.944 16.6921C147.702 16.3548 148.56 16.1861 149.519 16.1861C150.868 16.1861 151.927 16.482 152.697 17.0739C153.472 17.6657 154.023 18.447 154.348 19.4176Z" fill="#4E130F"/>
</svg>
