<svg width="143" height="32" viewBox="0 0 143 32" fill="none" xmlns="http://www.w3.org/2000/svg">
<g clip-path="url(#clip0_41_162)">
<path d="M16 20C18.2091 20 20 18.2091 20 16C20 13.7909 18.2091 12 16 12C13.7908 12 12 13.7909 12 16C12 18.2091 13.7908 20 16 20Z" stroke="#4E130F" stroke-width="3" stroke-linecap="round" stroke-linejoin="round"/>
<path d="M25.8666 20C25.6892 20.4022 25.6362 20.8483 25.7146 21.2808C25.7931 21.7133 25.9993 22.1124 26.3066 22.4267L26.3866 22.5067C26.6346 22.7543 26.8313 23.0484 26.9655 23.3722C27.0997 23.6959 27.1687 24.0429 27.1687 24.3933C27.1687 24.7438 27.0997 25.0908 26.9655 25.4145C26.8313 25.7382 26.6346 26.0323 26.3866 26.28C26.139 26.5279 25.8449 26.7246 25.5212 26.8588C25.1974 26.993 24.8504 27.0621 24.5 27.0621C24.1495 27.0621 23.8025 26.993 23.4788 26.8588C23.1551 26.7246 22.861 26.5279 22.6133 26.28L22.5333 26.2C22.2191 25.8926 21.82 25.6864 21.3874 25.608C20.9549 25.5296 20.5088 25.5825 20.1066 25.76C19.7123 25.929 19.376 26.2097 19.1391 26.5674C18.9022 26.9251 18.775 27.3443 18.7733 27.7733V28C18.7733 28.7072 18.4924 29.3855 17.9923 29.8856C17.4922 30.3857 16.8139 30.6667 16.1066 30.6667C15.3994 30.6667 14.7211 30.3857 14.221 29.8856C13.7209 29.3855 13.44 28.7072 13.44 28V27.88C13.4297 27.4387 13.2868 27.0107 13.03 26.6516C12.7732 26.2925 12.4143 26.019 12 25.8667C11.5978 25.6892 11.1517 25.6362 10.7192 25.7147C10.2867 25.7931 9.88755 25.9993 9.57331 26.3067L9.49331 26.3867C9.24565 26.6346 8.95155 26.8313 8.62782 26.9655C8.30409 27.0997 7.95709 27.1688 7.60665 27.1688C7.25621 27.1688 6.9092 27.0997 6.58547 26.9655C6.26174 26.8313 5.96764 26.6346 5.71998 26.3867C5.47204 26.139 5.27535 25.8449 5.14115 25.5212C5.00696 25.1974 4.93788 24.8504 4.93788 24.5C4.93788 24.1496 5.00696 23.8026 5.14115 23.4788C5.27535 23.1551 5.47204 22.861 5.71998 22.6133L5.79998 22.5333C6.10736 22.2191 6.31356 21.82 6.39199 21.3875C6.47041 20.9549 6.41747 20.5088 6.23998 20.1067C6.07096 19.7123 5.79032 19.376 5.4326 19.1391C5.07488 18.9022 4.6557 18.775 4.22665 18.7733H3.99998C3.29274 18.7733 2.61446 18.4924 2.11436 17.9923C1.61426 17.4922 1.33331 16.8139 1.33331 16.1067C1.33331 15.3994 1.61426 14.7211 2.11436 14.221C2.61446 13.721 3.29274 13.44 3.99998 13.44H4.11998C4.56131 13.4297 4.98932 13.2868 5.34838 13.03C5.70744 12.7732 5.98093 12.4143 6.13331 12C6.3108 11.5978 6.36374 11.1517 6.28532 10.7192C6.20689 10.2867 6.0007 9.88757 5.69331 9.57333L5.61331 9.49333C5.36538 9.24567 5.16869 8.95157 5.03449 8.62784C4.90029 8.30411 4.83122 7.95711 4.83122 7.60667C4.83122 7.25622 4.90029 6.90922 5.03449 6.58549C5.16869 6.26176 5.36538 5.96766 5.61331 5.72C5.86097 5.47206 6.15508 5.27537 6.47881 5.14117C6.80253 5.00697 7.14954 4.9379 7.49998 4.9379C7.85042 4.9379 8.19743 5.00697 8.52115 5.14117C8.84488 5.27537 9.13898 5.47206 9.38665 5.72L9.46665 5.8C9.78089 6.10738 10.18 6.31358 10.6125 6.392C11.0451 6.47043 11.4912 6.41749 11.8933 6.24H12C12.3943 6.07098 12.7307 5.79034 12.9676 5.43262C13.2045 5.0749 13.3316 4.65571 13.3333 4.22667V4C13.3333 3.29275 13.6143 2.61448 14.1144 2.11438C14.6145 1.61428 15.2927 1.33333 16 1.33333C16.7072 1.33333 17.3855 1.61428 17.8856 2.11438C18.3857 2.61448 18.6666 3.29275 18.6666 4V4.12C18.6684 4.54905 18.7955 4.96823 19.0324 5.32595C19.2693 5.68367 19.6056 5.96432 20 6.13333C20.4021 6.31082 20.8482 6.36376 21.2808 6.28534C21.7133 6.20691 22.1124 6.00071 22.4266 5.69333L22.5066 5.61333C22.7543 5.3654 23.0484 5.1687 23.3721 5.03451C23.6959 4.90031 24.0429 4.83123 24.3933 4.83123C24.7438 4.83123 25.0908 4.90031 25.4145 5.03451C25.7382 5.1687 26.0323 5.3654 26.28 5.61333C26.5279 5.86099 26.7246 6.1551 26.8588 6.47882C26.993 6.80255 27.0621 7.14956 27.0621 7.5C27.0621 7.85044 26.993 8.19744 26.8588 8.52117C26.7246 8.8449 26.5279 9.139 26.28 9.38667L26.2 9.46667C25.8926 9.7809 25.6864 10.18 25.608 10.6125C25.5295 11.0451 25.5825 11.4912 25.76 11.8933V12C25.929 12.3944 26.2096 12.7307 26.5674 12.9676C26.9251 13.2045 27.3443 13.3316 27.7733 13.3333H28C28.7072 13.3333 29.3855 13.6143 29.8856 14.1144C30.3857 14.6145 30.6666 15.2928 30.6666 16C30.6666 16.7072 30.3857 17.3855 29.8856 17.8856C29.3855 18.3857 28.7072 18.6667 28 18.6667H27.88C27.4509 18.6684 27.0317 18.7955 26.674 19.0324C26.3163 19.2693 26.0357 19.6056 25.8666 20Z" stroke="#4E130F" stroke-width="3" stroke-linecap="round" stroke-linejoin="round"/>
</g>
<path d="M59.5767 14.1676L57.6946 14.7003C57.5762 14.3866 57.4016 14.0818 57.1708 13.7859C56.9459 13.484 56.6381 13.2354 56.2475 13.0401C55.8569 12.8448 55.3568 12.7472 54.7472 12.7472C53.9126 12.7472 53.2172 12.9395 52.6609 13.3242C52.1104 13.703 51.8352 14.1854 51.8352 14.7713C51.8352 15.2921 52.0246 15.7035 52.4034 16.0053C52.7822 16.3072 53.3741 16.5587 54.179 16.7599L56.2031 17.2571C57.4223 17.553 58.3308 18.0058 58.9286 18.6154C59.5264 19.2191 59.8253 19.9974 59.8253 20.9503C59.8253 21.7315 59.6004 22.4299 59.1506 23.0455C58.7067 23.661 58.0852 24.1463 57.2862 24.5014C56.4872 24.8565 55.558 25.0341 54.4986 25.0341C53.1077 25.0341 51.9566 24.7322 51.0451 24.1286C50.1336 23.5249 49.5566 22.643 49.3139 21.483L51.3026 20.9858C51.492 21.7197 51.85 22.2701 52.3768 22.6371C52.9094 23.004 53.6049 23.1875 54.4631 23.1875C55.4396 23.1875 56.215 22.9804 56.7891 22.5661C57.3691 22.1458 57.6591 21.6428 57.6591 21.0568C57.6591 20.5833 57.4934 20.1868 57.1619 19.8672C56.8305 19.5417 56.3215 19.299 55.6349 19.1392L53.3622 18.6065C52.1134 18.3106 51.196 17.8519 50.6101 17.2305C50.0301 16.6031 49.7401 15.8189 49.7401 14.8778C49.7401 14.1084 49.9561 13.4278 50.3881 12.8359C50.8261 12.2441 51.4209 11.7795 52.1726 11.4421C52.9302 11.1048 53.7884 10.9361 54.7472 10.9361C56.0966 10.9361 57.156 11.232 57.9254 11.8239C58.7008 12.4157 59.2512 13.197 59.5767 14.1676ZM68.6965 25.0341C67.3825 25.0341 66.2491 24.7441 65.2963 24.1641C64.3493 23.5781 63.6183 22.7614 63.1034 21.7138C62.5944 20.6603 62.3399 19.4351 62.3399 18.0384C62.3399 16.6416 62.5944 15.4105 63.1034 14.3452C63.6183 13.2739 64.3345 12.4394 65.2519 11.8416C66.1752 11.2379 67.2523 10.9361 68.4834 10.9361C69.1936 10.9361 69.895 11.0545 70.5874 11.2912C71.2799 11.5279 71.9102 11.9126 72.4784 12.4453C73.0466 12.9721 73.4994 13.6705 73.8367 14.5405C74.1741 15.4105 74.3428 16.4818 74.3428 17.7543V18.642H63.8314V16.831H72.2121C72.2121 16.0616 72.0582 15.375 71.7504 14.7713C71.4486 14.1676 71.0165 13.6912 70.4543 13.342C69.8979 12.9928 69.241 12.8182 68.4834 12.8182C67.6489 12.8182 66.9268 13.0253 66.3172 13.4396C65.7135 13.848 65.2489 14.3807 64.9234 15.0376C64.5979 15.6946 64.4351 16.3989 64.4351 17.1506V18.358C64.4351 19.3878 64.6127 20.2608 64.9678 20.9769C65.3288 21.6871 65.8289 22.2287 66.4681 22.6016C67.1073 22.9685 67.8501 23.152 68.6965 23.152C69.2469 23.152 69.7441 23.075 70.1879 22.9212C70.6378 22.7614 71.0254 22.5246 71.3509 22.2109C71.6765 21.8913 71.928 21.4948 72.1056 21.0213L74.1297 21.5895C73.9166 22.276 73.5586 22.8797 73.0555 23.4006C72.5524 23.9155 71.931 24.3179 71.1911 24.608C70.4513 24.892 69.6198 25.0341 68.6965 25.0341ZM83.4603 11.1136V12.8892H76.3936V11.1136H83.4603ZM78.4532 7.84659H80.5484V20.8438C80.5484 21.4356 80.6342 21.8795 80.8058 22.1754C80.9834 22.4654 81.2083 22.6607 81.4806 22.7614C81.7587 22.8561 82.0517 22.9034 82.3595 22.9034C82.5903 22.9034 82.7797 22.8916 82.9276 22.8679C83.0756 22.8383 83.194 22.8146 83.2828 22.7969L83.7089 24.679C83.5669 24.7322 83.3686 24.7855 83.1141 24.8388C82.8596 24.898 82.537 24.9276 82.1464 24.9276C81.5545 24.9276 80.9745 24.8003 80.4063 24.5458C79.8441 24.2913 79.3765 23.9036 79.0036 23.3828C78.6367 22.862 78.4532 22.205 78.4532 21.4119V7.84659ZM92.5423 11.1136V12.8892H85.4756V11.1136H92.5423ZM87.5352 7.84659H89.6304V20.8438C89.6304 21.4356 89.7162 21.8795 89.8879 22.1754C90.0654 22.4654 90.2903 22.6607 90.5626 22.7614C90.8408 22.8561 91.1337 22.9034 91.4415 22.9034C91.6723 22.9034 91.8617 22.8916 92.0097 22.8679C92.1576 22.8383 92.276 22.8146 92.3648 22.7969L92.7909 24.679C92.6489 24.7322 92.4506 24.7855 92.1961 24.8388C91.9416 24.898 91.6191 24.9276 91.2284 24.9276C90.6366 24.9276 90.0566 24.8003 89.4884 24.5458C88.9261 24.2913 88.4585 23.9036 88.0857 23.3828C87.7187 22.862 87.5352 22.205 87.5352 21.4119V7.84659ZM95.694 24.75V11.1136H97.7892V24.75H95.694ZM96.7593 8.84091C96.3509 8.84091 95.9988 8.70182 95.7029 8.42365C95.4128 8.14548 95.2678 7.81108 95.2678 7.42045C95.2678 7.02983 95.4128 6.69543 95.7029 6.41726C95.9988 6.13909 96.3509 6 96.7593 6C97.1677 6 97.5169 6.13909 97.8069 6.41726C98.1028 6.69543 98.2508 7.02983 98.2508 7.42045C98.2508 7.81108 98.1028 8.14548 97.8069 8.42365C97.5169 8.70182 97.1677 8.84091 96.7593 8.84091ZM103.722 16.5469V24.75H101.627V11.1136H103.651V13.2443H103.828C104.148 12.5518 104.633 11.9955 105.284 11.5753C105.935 11.1491 106.776 10.9361 107.806 10.9361C108.729 10.9361 109.537 11.1255 110.229 11.5043C110.922 11.8771 111.46 12.4453 111.845 13.2088C112.23 13.9664 112.422 14.9252 112.422 16.0852V24.75H110.327V16.2273C110.327 15.156 110.049 14.3215 109.492 13.7237C108.936 13.12 108.173 12.8182 107.202 12.8182C106.533 12.8182 105.935 12.9632 105.409 13.2532C104.888 13.5432 104.476 13.9664 104.175 14.5227C103.873 15.0791 103.722 15.7538 103.722 16.5469ZM121.755 30.1477C120.743 30.1477 119.873 30.0175 119.145 29.7571C118.417 29.5026 117.81 29.1652 117.325 28.745C116.845 28.3307 116.464 27.8868 116.18 27.4134L117.849 26.2415C118.038 26.4901 118.278 26.7741 118.568 27.0938C118.858 27.4193 119.254 27.7004 119.757 27.9371C120.266 28.1798 120.932 28.3011 121.755 28.3011C122.856 28.3011 123.764 28.0348 124.48 27.5021C125.197 26.9695 125.555 26.1349 125.555 24.9986V22.2287H125.377C125.223 22.4773 125.004 22.785 124.72 23.152C124.442 23.513 124.039 23.8356 123.513 24.1197C122.992 24.3978 122.288 24.5369 121.4 24.5369C120.299 24.5369 119.311 24.2765 118.435 23.7557C117.565 23.2348 116.875 22.4773 116.366 21.483C115.863 20.4886 115.611 19.2812 115.611 17.8608C115.611 16.464 115.857 15.2478 116.348 14.212C116.84 13.1703 117.523 12.3654 118.399 11.7972C119.275 11.2231 120.287 10.9361 121.435 10.9361C122.323 10.9361 123.027 11.084 123.548 11.38C124.075 11.67 124.477 12.0014 124.756 12.3743C125.04 12.7412 125.259 13.0431 125.413 13.2798H125.626V11.1136H127.65V25.1406C127.65 26.3125 127.383 27.2654 126.851 27.9993C126.324 28.7391 125.614 29.2807 124.72 29.6239C123.832 29.9731 122.844 30.1477 121.755 30.1477ZM121.684 22.6548C122.524 22.6548 123.235 22.4625 123.815 22.0778C124.395 21.6931 124.835 21.1397 125.137 20.4176C125.439 19.6955 125.59 18.8314 125.59 17.8253C125.59 16.8428 125.442 15.9757 125.146 15.2241C124.85 14.4724 124.412 13.8835 123.832 13.4574C123.252 13.0312 122.536 12.8182 121.684 12.8182C120.796 12.8182 120.056 13.0431 119.464 13.4929C118.878 13.9427 118.438 14.5464 118.142 15.304C117.852 16.0616 117.707 16.902 117.707 17.8253C117.707 18.7723 117.855 19.6097 118.15 20.3377C118.452 21.0598 118.896 21.628 119.482 22.0423C120.074 22.4506 120.808 22.6548 121.684 22.6548ZM141.144 14.1676L139.262 14.7003C139.144 14.3866 138.969 14.0818 138.738 13.7859C138.513 13.484 138.206 13.2354 137.815 13.0401C137.424 12.8448 136.924 12.7472 136.315 12.7472C135.48 12.7472 134.785 12.9395 134.228 13.3242C133.678 13.703 133.403 14.1854 133.403 14.7713C133.403 15.2921 133.592 15.7035 133.971 16.0053C134.35 16.3072 134.941 16.5587 135.746 16.7599L137.771 17.2571C138.99 17.553 139.898 18.0058 140.496 18.6154C141.094 19.2191 141.393 19.9974 141.393 20.9503C141.393 21.7315 141.168 22.4299 140.718 23.0455C140.274 23.661 139.653 24.1463 138.854 24.5014C138.055 24.8565 137.125 25.0341 136.066 25.0341C134.675 25.0341 133.524 24.7322 132.612 24.1286C131.701 23.5249 131.124 22.643 130.881 21.483L132.87 20.9858C133.059 21.7197 133.417 22.2701 133.944 22.6371C134.477 23.004 135.172 23.1875 136.03 23.1875C137.007 23.1875 137.782 22.9804 138.356 22.5661C138.936 22.1458 139.226 21.6428 139.226 21.0568C139.226 20.5833 139.061 20.1868 138.729 19.8672C138.398 19.5417 137.889 19.299 137.202 19.1392L134.93 18.6065C133.681 18.3106 132.763 17.8519 132.177 17.2305C131.597 16.6031 131.307 15.8189 131.307 14.8778C131.307 14.1084 131.523 13.4278 131.956 12.8359C132.393 12.2441 132.988 11.7795 133.74 11.4421C134.498 11.1048 135.356 10.9361 136.315 10.9361C137.664 10.9361 138.723 11.232 139.493 11.8239C140.268 12.4157 140.819 13.197 141.144 14.1676Z" fill="#4E130F"/>
<defs>
<clipPath id="clip0_41_162">
<rect width="32" height="32" fill="white"/>
</clipPath>
</defs>
</svg>
